<?xml version="1.0" encoding="utf-8"?>
<!-- Generator: Adobe Illustrator 25.2.1, SVG Export Plug-In . SVG Version: 6.00 Build 0)  -->
<svg version="1.1" id="Layer_1" xmlns="http://www.w3.org/2000/svg" xmlns:xlink="http://www.w3.org/1999/xlink" x="0px" y="0px"
	 viewBox="0 0 864 864" style="enable-background:new 0 0 864 864;" xml:space="preserve">
<style type="text/css">
	.st0{fill:#FFFFFF;stroke:#CC3333;stroke-width:1.41732;stroke-miterlimit:11.33858;}
	.st1{display:none;}
	.st2{display:inline;fill:#6FBE44;}
	.st3{font-family:'MyriadPro-Regular';}
	.st4{font-size:12px;}
	.st5{display:none;fill:#6FBE44;}
	.st6{font-family:'FiraCode-Regular';}
	.st7{font-size:14px;}
	.st8{fill:#FFFFFF;stroke:#010101;stroke-width:1.41732;stroke-miterlimit:11.33858;}
	.st9{display:inline;}
	.st10{display:none;fill:#FFFFFF;stroke:#CC3333;stroke-width:1.41732;stroke-miterlimit:11.33858;}
	.st11{fill:#6FBE44;}
	.st12{display:inline;fill:#FFFFFF;stroke:#010101;stroke-width:1.41732;stroke-miterlimit:11.33858;}
</style>
<g>
	<g>
		<g>
			<path class="st0" d="M149.03152,445.57199l5.33113-0.52158l10.40031-5.12503l0.86398-1.07434l23.41078-32.22256h0.00029
				l0.00595-0.00848l-4.10202-10.9902l-0.1817-0.48669c0.04787-0.05328,25.98923-28.86346,26.03299-28.91241
				c0.00012-0.00012,0.52396-0.58209,0.52396-0.58209l28.96526-21.32333c20.82442-5.00281,70.07918-5.51291,91.743-5.09387
				c0.02774-0.05353,4.99313-9.57343,5.02414-9.63297c-0.03647-0.32535-4.44797-21.05322-4.5032-21.36755
				c10.88452-0.11646,31.04675,0.0415,42.00259-0.25372c3.47205-3.75497,22.26343-23.07724,24.86484-26.79306
				c-0.91769-9.78119-1.23062-35.75574-2.97357-45.65649c-0.1308,0.00035-0.39676,0.00136-0.52753,0.00198
				c-1.99127-31.28253-1.81482-69.43575,0.15536-100.68478c0.11874-0.00044,0.36801-0.00137,0.48782-0.00182l0.29538-0.39642
				c0.63898-11.41354,1.92084-34.31894,2.56253-45.77828c-2.18521-4.34558-21.31409-23.21828-24.8837-27.09496
				c-1.40909-0.19336-43.74643,0.12602-46.60992,0.08674l-13.22263-31.61282c-0.66101-0.6263-4.9433-4.82439-5.50006-5.35407
				c-7.37338-0.21595-39.2959,0.18125-47.2713,0.15095c-0.00009,0.00013-16.64485-7.96721-16.64485-7.96721
				c-2.34248-0.50159-42.80136,0.24677-46.41562,0.12274c-0.04628,0.0436-8.88156,8.3008-8.93651,8.35228
				c-27.25487,0.2236-70.78003,0.65006-97.98576,0.96775c0.00471,0.00278-6.92674,12.13632-6.93238,12.15435
				c-0.00004,0.00005-22.67777,22.67721-22.67777,22.67721c-1.68677,12.05757-7.93259,52.48755-7.9338,63.90164
				c-0.01012,0.09998,0.00668,49.72746-0.00038,49.88229c1.26328,23.39827,7.60188,64.04263,12.34489,86.90927
				c-0.43263,0.37589-34.66428,29.06461-35.05818,29.43149c-0.00051,0.00272-0.38251,0.36987-0.38336,0.37393
				c-0.00003,0.00003-6.94776,8.47223-6.94776,8.47223l16.42962,26.63205c0,0.00027,0.47649,0.85602,0.47622,0.85632
				c0,0.00003-0.45639,0.82776-0.45639,0.82776l-10.74897,14.021l0.0085,0.0105l0.01105,5.42758l-3.43814,6.23529
				c0.48734,4.72314,1.89717,18.38596,2.36126,22.89487c9.30394,7.63983,29.26245,24.03055,38.40375,31.53821
				c0.00004,0.00006,6.24844,2.96481,6.24844,2.96481l7.65469,0.54453c5.1874,4.58569,32.27956,28.54254,38.04604,33.63873
				C123.18194,445.69565,144.72655,445.59256,149.03152,445.57199l0.25684-0.1644"/>
		</g>
		<text transform="matrix(1 0 0 1 162.54631 169.72394)" class="st1"><tspan x="0" y="0" class="st2 st3 st4">Oscar Kosar-Kosarewicz</tspan><tspan x="0" y="14.40039" class="st2 st3 st4">April 2021</tspan></text>
		<text transform="matrix(1 0 0 1 162.84613 154.93842)" class="st5 st6 st7">Dactyl Manuform</text>
		<polygon class="st8" points="281.12387,39.3214 283.53333,35.14823 288.3522,35.14823 290.76166,39.3214 288.3522,43.49457 
			283.53333,43.49457 		"/>
		<polygon class="st8" points="247.99734,326.64874 250.40678,322.47559 255.22569,322.47559 257.63513,326.64874 
			255.22569,330.8222 250.40678,330.8222 		"/>
		<polygon class="st8" points="68.25953,227.57022 70.669,223.39706 75.48788,223.39706 77.89733,227.57022 75.48788,231.74368 
			70.669,231.74368 		"/>
		<polygon class="st8" points="66.28095,84.97819 68.69068,80.80474 73.50959,80.80474 75.91904,84.97819 73.50959,89.15136 
			68.69068,89.15136 		"/>
	</g>
	<path class="st8" d="M30.01788,348.00043"/>
</g>
<g class="st1">
	<g class="st9">
		<g>
			<path class="st10" d="M673.12177,445.94351l0.25684,0.1644c4.30499,0.02054,25.84961,0.12366,29.68073,0.14172
				c5.76648-5.09619,32.85864-29.05304,38.04602-33.63873l7.65472-0.54453c0,0,6.24841-2.96475,6.24841-2.96481
				c9.1413-7.50766,29.09979-23.89838,38.40375-31.53821c0.46411-4.50891,1.87396-18.17172,2.36127-22.89487l-3.43811-6.23529
				l0.01105-5.42758l0.00848-0.0105l-10.74896-14.021c0,0-0.45642-0.82773-0.45642-0.82776
				c-0.00024-0.00031,0.47626-0.85605,0.47626-0.85632l16.42963-26.63205c0,0-6.94775-8.4722-6.94775-8.47223
				c-0.00085-0.00406-0.38287-0.37122-0.38336-0.37393c-0.39392-0.36688-34.62555-29.0556-35.05823-29.43149
				c4.74304-22.86664,11.08167-63.511,12.34491-86.90927c-0.00708-0.15483,0.00977-49.78231-0.00037-49.88229
				c-0.00122-11.41409-6.24707-51.84407-7.93384-63.90163c0,0-22.67767-22.67717-22.67773-22.67721
				c-0.00562-0.01803-6.93707-12.15157-6.93237-12.15435c-27.20575-0.31769-70.7309-0.74415-97.98578-0.96775
				c-0.05493-0.05148-8.8902-8.30868-8.93652-8.35228c-3.61426,0.12403-44.07312-0.62433-46.41559-0.12274
				c0,0-16.64478,7.96734-16.6449,7.96721c-7.9754,0.03029-39.89789-0.3669-47.2713-0.15095
				c-0.55676,0.52968-4.83902,4.72778-5.50003,5.35407l-13.22263,31.61282c-2.86349,0.03928-45.20084-0.28011-46.60992-0.08674
				c-3.56961,3.87667-22.69849,22.74937-24.8837,27.09496c0.64169,11.45934,1.92355,34.36475,2.56253,45.77829l0.29538,0.39642
				c0.11981,0.00044,0.36908,0.00137,0.48782,0.00182c1.97018,31.24904,2.14664,69.40225,0.15536,100.68478
				c-0.13077-0.00063-0.39673-0.00163-0.52753-0.00198c-1.74295,9.90076-2.05588,35.87531-2.97357,45.65649
				c2.60141,3.71582,21.39279,23.03809,24.86484,26.79306c10.95584,0.29523,31.11807,0.13727,42.00259,0.25372
				c-0.05524,0.31433-4.46674,21.04221-4.5032,21.36755c0.03101,0.05954,4.9964,9.57944,5.02414,9.63297
				c21.66379-0.41904,70.91855,0.09106,91.74301,5.09387l28.96527,21.32333c0,0,0.5238,0.58197,0.52393,0.58209
				c0.04376,0.04895,25.98511,28.85913,26.03302,28.91241l-0.1817,0.48669l-4.10205,10.9902l0.00598,0.00848h0.00024
				l23.41083,32.22256l0.86395,1.07434l10.40033,5.12503l5.33112,0.52158"/>
		</g>
		<text transform="matrix(1 0 0 1 536.31726 173.04453)"><tspan x="0" y="0" class="st11 st3 st4">Oscar Kosar-Kosarewicz</tspan><tspan x="0" y="14.40039" class="st11 st3 st4">April 2021</tspan></text>
		<text transform="matrix(1 0 0 1 536.61707 158.259)" class="st11 st6 st7">Dactyl Manuform</text>
		<polygon class="st8" points="538.87683,44.03048 534.05792,44.03048 531.64844,39.85732 534.05792,35.68415 538.87683,35.68415 
			541.28625,39.85732 		"/>
		<polygon class="st8" points="572.00336,331.35812 567.18445,331.35812 564.77496,327.18466 567.18445,323.01151 
			572.00336,323.01151 574.41278,327.18466 		"/>
		<polygon class="st8" points="751.74115,232.27959 746.92224,232.27959 744.51282,228.10614 746.92224,223.93298 
			751.74115,223.93298 754.15057,228.10614 		"/>
		<polygon class="st8" points="753.71942,89.68727 748.90051,89.68727 746.49109,85.51411 748.90051,81.34066 753.71942,81.34066 
			756.12915,85.51411 		"/>
	</g>
	<path class="st12" d="M792.39227,348.53635"/>
</g>
</svg>
